<?xml version="1.0" standalone="no"?>
<!DOCTYPE svg PUBLIC "-//W3C//DTD SVG 20010904//EN"
 "http://www.w3.org/TR/2001/REC-SVG-20010904/DTD/svg10.dtd">
<svg version="1.0" xmlns="http://www.w3.org/2000/svg"
 width="480.000000pt" height="784.000000pt" viewBox="0 0 480.000000 784.000000"
 preserveAspectRatio="xMidYMid meet">
<metadata>
Created by potrace 1.13, written by Peter Selinger 2001-2015
</metadata>
<g transform="translate(0.000000,784.000000) scale(0.100000,-0.100000)"
fill="#000000" stroke="none">
<path d="M2685 7003 c-222 -21 -461 -80 -600 -150 -151 -77 -283 -188 -357
-301 l-43 -66 -6 74 c-7 82 -25 130 -63 173 -28 30 -48 33 -88 13 -26 -14 -29
-13 -38 4 -33 61 -95 40 -158 -53 -78 -115 -103 -209 -103 -382 0 -147 22
-242 86 -370 54 -109 153 -230 214 -262 41 -21 47 -30 80 -112 20 -49 39 -92
42 -96 3 -3 -5 -26 -17 -52 -13 -25 -24 -63 -24 -82 0 -47 33 -100 71 -114 33
-13 38 -25 64 -172 9 -49 23 -112 31 -139 22 -78 19 -109 -15 -134 -59 -43
-108 -192 -98 -302 3 -38 -2 -72 -14 -109 -23 -66 -24 -110 -4 -158 8 -19 15
-55 15 -79 0 -31 9 -61 30 -98 27 -47 30 -61 25 -103 -6 -38 -1 -62 19 -117
16 -41 26 -89 26 -120 0 -55 33 -138 66 -168 11 -10 36 -24 55 -32 20 -8 40
-21 46 -28 6 -7 18 -65 27 -130 15 -112 15 -118 -4 -174 -11 -31 -20 -68 -20
-81 0 -12 -9 -32 -21 -44 -20 -20 -20 -23 -6 -62 61 -178 117 -352 117 -367 0
-10 -9 -39 -21 -65 l-21 -47 22 -30 c31 -43 23 -74 -74 -273 -80 -162 -176
-421 -176 -471 0 -13 14 -40 32 -60 l32 -36 -77 -71 c-85 -80 -127 -157 -148
-270 -6 -34 -18 -96 -26 -137 -8 -41 -17 -118 -20 -170 -5 -97 -33 -221 -54
-246 -10 -12 -7 -20 12 -42 13 -15 29 -30 36 -35 6 -4 25 -31 42 -60 39 -68
55 -82 116 -102 28 -10 57 -23 66 -31 8 -8 19 -14 23 -14 22 0 37 -33 34 -75
l-3 -45 89 -4 c95 -4 135 4 284 59 l74 26 81 -16 c173 -35 167 -32 165 -79
l-3 -41 90 3 c96 4 199 30 243 61 15 10 50 31 77 45 28 15 73 40 100 56 61 35
128 58 305 104 74 20 160 49 191 65 30 16 82 34 115 41 86 18 173 66 190 105
7 17 20 37 28 44 9 7 14 23 12 35 -2 16 -16 25 -67 40 -35 10 -98 23 -139 28
-41 5 -77 11 -79 13 -2 2 11 41 29 87 21 55 37 122 46 198 9 63 24 176 35 250
28 184 34 356 19 535 -20 249 -23 373 -10 404 9 24 8 38 -6 78 -17 49 -17 50
10 138 23 72 39 103 85 160 31 38 88 113 126 165 38 52 117 154 176 225 60 72
121 149 136 171 69 101 229 313 237 314 5 0 6 -14 2 -32 -12 -63 -35 -1033
-24 -1044 4 -3 4 -20 1 -36 -4 -21 -1 -33 13 -43 11 -8 22 -15 27 -15 4 0 7
33 7 74 0 41 4 78 10 81 6 4 10 -8 10 -29 0 -20 5 -36 10 -36 6 0 10 14 10 30
0 32 16 42 22 13 2 -9 3 59 3 153 0 93 6 362 13 598 14 466 15 472 73 504 16
10 29 20 29 24 0 4 14 23 30 41 17 19 30 42 30 51 0 10 18 44 40 76 l40 60 -2
162 c-3 158 -4 163 -24 166 -12 2 -24 11 -27 21 -2 9 -21 22 -43 29 -35 10
-41 16 -52 57 -8 29 -18 45 -27 45 -9 0 -25 16 -36 35 -16 26 -28 35 -48 35
-15 0 -37 9 -49 20 -12 11 -24 20 -28 20 -4 0 -27 20 -51 45 -23 25 -50 45
-59 45 -8 0 -35 16 -59 36 -32 26 -50 34 -64 29 -21 -6 -21 -7 -2 -43 10 -21
46 -60 78 -89 32 -28 69 -66 82 -85 13 -18 46 -49 73 -68 54 -37 110 -91 103
-98 -6 -6 -75 38 -75 48 0 4 -16 15 -35 24 -20 10 -46 34 -59 54 -25 38 -78
95 -137 147 -102 88 -136 209 -70 245 22 11 151 7 186 -6 11 -4 31 -18 45 -31
20 -19 32 -22 60 -18 31 5 42 1 80 -29 33 -27 55 -36 82 -36 31 0 48 -9 93
-50 60 -55 65 -57 65 -35 0 8 -7 15 -15 15 -26 0 -28 27 -5 74 12 25 20 56 18
68 -3 19 -8 13 -28 -29 -27 -57 -34 -61 -61 -37 -10 9 -37 18 -60 21 -24 4
-64 19 -88 35 -28 18 -57 28 -76 26 -20 -1 -44 9 -75 31 -43 31 -47 32 -115
26 l-70 -7 -12 31 c-11 31 -12 31 -82 31 -84 0 -244 23 -319 45 -40 12 -52 20
-48 31 3 9 6 19 6 23 0 3 25 32 55 64 83 86 162 262 172 384 5 60 6 61 46 79
84 38 182 116 233 185 94 128 165 458 120 562 -21 50 -63 89 -86 82 -14 -4
-20 -2 -20 8 0 8 -9 45 -20 81 -17 54 -27 70 -58 91 -23 16 -51 25 -74 25 -27
0 -40 5 -48 20 -6 11 -22 27 -35 36 -21 14 -30 14 -56 4 -53 -22 -72 -82 -88
-280 -6 -69 -15 -138 -19 -155 -8 -28 -10 -26 -48 55 -21 47 -53 103 -70 126
-44 57 -54 78 -54 112 0 65 -74 132 -124 112 -23 -8 -28 -5 -51 24 -14 19 -40
39 -58 46 -18 6 -59 25 -92 41 -93 45 -226 87 -349 108 -111 19 -286 31 -361
24z m824 -214 c38 -41 45 -96 23 -200 -20 -95 -27 -176 -22 -259 2 -32 7 -9
20 85 34 255 41 288 68 313 32 29 38 28 72 -8 42 -45 45 -115 11 -240 -31
-112 -19 -290 23 -352 33 -49 51 -56 83 -32 65 48 125 177 138 296 35 333 56
396 118 372 20 -7 54 -111 62 -189 6 -53 3 -104 -20 -340 l-5 -50 22 45 c21
41 23 60 23 200 0 85 -2 182 -5 215 l-5 60 32 3 c47 5 89 -30 102 -84 19 -75
23 -214 11 -334 -19 -184 -22 -227 -11 -210 17 28 43 194 46 297 2 57 7 107
10 113 13 21 43 9 58 -23 54 -112 15 -334 -91 -527 -83 -150 -243 -255 -417
-273 -55 -6 -182 29 -178 49 1 6 -27 27 -62 47 -34 20 -69 42 -76 49 -8 7 -27
20 -43 28 -34 17 -101 81 -138 130 -43 58 -63 170 -62 345 1 173 23 290 74
398 45 95 95 123 139 76z m-2055 -35 c19 -18 22 -151 5 -223 -14 -63 -15 -207
0 -272 11 -54 34 -99 44 -89 3 3 -2 55 -11 115 -26 181 7 404 65 442 25 16 26
16 44 -6 11 -13 28 -54 40 -91 18 -60 19 -77 10 -142 -6 -40 -21 -98 -34 -128
-50 -112 -69 -214 -74 -385 -3 -88 0 -179 5 -203 5 -23 6 -44 2 -47 -13 -8
-96 82 -148 160 -145 218 -173 529 -68 748 31 65 83 137 99 137 3 0 13 -7 21
-16z m1258 -73 c197 -51 300 -157 354 -366 28 -108 25 -307 -5 -405 -38 -123
-109 -176 -184 -137 l-25 13 39 32 c22 19 52 60 71 99 32 66 33 71 33 193 0
101 -4 138 -22 195 -41 131 -133 230 -258 277 -53 20 -77 23 -215 23 -178 0
-237 -15 -346 -84 -127 -81 -193 -245 -182 -452 5 -93 28 -158 79 -222 34 -42
33 -58 -6 -83 -26 -17 -27 -17 -50 12 -34 42 -80 140 -96 204 -8 32 -14 108
-13 180 0 119 1 129 32 201 66 154 202 273 358 313 82 21 103 23 240 25 91 1
140 -4 196 -18z m-34 -245 c18 -24 32 -50 32 -56 0 -13 -117 -129 -157 -157
-13 -8 -23 -20 -23 -26 0 -6 34 -45 75 -88 41 -42 75 -81 75 -87 0 -5 -18 -26
-40 -46 -27 -24 -45 -34 -57 -29 -36 13 -99 56 -141 96 -32 31 -46 39 -57 32
-7 -6 -50 -38 -94 -72 -45 -35 -87 -63 -95 -63 -17 0 -64 54 -78 89 -8 23 -6
29 24 51 58 44 118 102 118 115 0 6 -10 20 -21 31 -12 10 -39 40 -61 66 -42
51 -42 59 7 116 40 48 47 46 124 -28 39 -39 76 -70 82 -70 5 0 32 20 58 45 71
66 153 124 177 125 13 0 32 -16 52 -44z m1059 -912 c49 -24 93 -75 93 -108 0
-7 9 -25 21 -40 40 -50 14 -73 -87 -75 -69 -1 -105 13 -132 54 -37 54 -47 106
-27 144 14 29 42 49 71 50 5 1 33 -11 61 -25z m-1187 -78 c111 -27 285 -77
315 -90 27 -12 154 -50 310 -92 43 -12 69 -27 93 -51 30 -32 32 -39 32 -106 0
-40 -4 -86 -9 -103 -5 -17 -42 -66 -83 -109 l-75 -79 -55 3 c-74 3 -130 -21
-170 -73 -43 -56 -54 -64 -83 -58 -19 3 -23 8 -16 20 25 45 -30 92 -125 106
-30 5 -26 2 18 -12 57 -17 98 -43 98 -61 0 -6 -10 -21 -22 -34 -19 -20 -48
-30 -153 -51 -71 -14 -170 -35 -220 -46 -113 -24 -176 -25 -292 -1 -128 27
-224 77 -256 136 -21 40 -25 96 -9 160 14 59 14 70 -8 183 -13 66 -20 127 -17
135 6 16 106 73 272 155 179 89 196 94 305 87 52 -3 120 -11 150 -19z m1186
-321 c-5 -18 -2 -25 9 -25 23 0 18 -26 -10 -56 -18 -20 -22 -30 -14 -40 19
-23 -12 -52 -86 -78 -79 -27 -147 -47 -152 -43 -5 6 21 77 29 77 4 0 8 6 8 13
1 16 38 57 72 80 36 22 41 22 33 -5 -4 -15 0 -12 12 9 15 26 87 92 102 93 2 0
0 -11 -3 -25z m-503 -368 c71 -54 87 -125 40 -169 -29 -27 -84 -58 -103 -58
-5 0 -10 12 -10 27 0 61 -83 96 -138 57 -21 -14 -22 -14 -22 5 0 23 -44 61
-71 61 -29 0 -23 15 25 66 l44 46 100 -4 c90 -3 102 -5 135 -31z m568 7 c100
-29 172 -78 253 -170 116 -132 160 -226 169 -359 3 -38 8 -94 12 -123 7 -51 6
-55 -44 -136 -28 -46 -51 -89 -51 -95 0 -17 -38 -88 -50 -96 -6 -4 -4 10 4 30
18 42 21 121 6 159 -13 35 -46 66 -70 66 -27 0 -97 -65 -121 -111 -28 -57 -25
-106 9 -137 l29 -26 -21 -64 c-19 -60 -20 -65 -4 -93 l17 -29 -77 -104 c-74
-100 -156 -214 -204 -284 -21 -31 -120 -153 -172 -213 -47 -53 -228 -301 -321
-440 -54 -79 -132 -186 -174 -237 -42 -51 -103 -131 -136 -177 -33 -46 -98
-135 -145 -198 -47 -62 -90 -122 -96 -133 -10 -17 -24 -19 -125 -21 -131 -1
-133 -3 -142 -90 -7 -60 9 -86 46 -78 12 2 66 14 119 26 78 17 120 20 220 17
112 -3 126 -6 163 -30 49 -32 85 -71 154 -166 33 -45 62 -74 78 -78 13 -4 55
1 91 11 60 16 73 24 125 79 33 33 66 75 75 91 23 46 152 443 152 470 0 14 -4
25 -9 25 -12 0 -22 45 -15 65 4 9 17 21 31 26 25 9 26 11 43 78 6 23 14 41 16
38 7 -7 -52 -275 -80 -367 -64 -203 -107 -307 -163 -388 -72 -105 -113 -131
-215 -139 l-73 -5 -65 83 c-96 122 -141 164 -194 179 -67 18 -279 8 -378 -19
-96 -26 -139 -21 -203 25 -26 18 -77 43 -113 55 -60 20 -70 21 -136 9 -39 -7
-89 -19 -110 -26 -56 -20 -57 -8 -2 16 69 29 161 41 228 30 64 -10 87 -20 141
-63 22 -17 42 -26 47 -21 5 5 12 46 16 91 l7 83 -47 21 c-54 24 -141 49 -206
59 -31 5 -37 8 -20 10 14 2 31 3 38 3 7 -1 14 9 17 21 2 11 13 66 25 121 22
107 49 209 55 203 2 -1 -10 -66 -26 -143 -16 -77 -28 -156 -27 -175 3 -34 5
-36 78 -60 41 -14 95 -36 120 -49 34 -18 66 -25 136 -29 l90 -5 110 149 c61
82 124 168 140 191 16 23 70 94 119 158 82 107 253 341 357 490 64 91 137 185
183 235 48 51 125 155 125 168 0 22 40 86 61 99 24 14 24 14 -9 10 -25 -3 -32
0 -27 10 3 8 5 21 5 29 0 19 35 48 68 55 l27 7 -31 1 c-18 0 -43 -8 -58 -20
l-26 -20 0 28 c0 48 21 67 66 60 21 -4 46 -16 56 -27 9 -11 21 -20 26 -20 5 0
28 28 51 62 47 71 52 112 20 165 -20 33 -21 35 -3 54 38 42 30 190 -13 257
-31 47 -70 67 -110 57 -47 -11 -112 -58 -128 -92 -9 -18 -18 -33 -21 -33 -3 0
-20 10 -36 22 -17 11 -53 34 -82 49 -45 26 -49 30 -29 35 13 3 32 22 44 40 27
45 19 111 -25 197 -61 121 -144 140 -223 51 -23 -26 -52 -71 -63 -99 l-21 -53
-50 24 c-48 24 -49 25 -34 46 30 44 14 118 -37 165 -28 27 -89 53 -121 53 -36
0 -69 -42 -74 -94 -3 -25 -9 -46 -13 -46 -4 0 -32 9 -63 19 -32 11 -86 21
-122 23 l-65 3 0 33 c0 64 -65 155 -118 165 -37 8 -81 -20 -105 -66 -26 -51
-26 -171 2 -207 l19 -25 -52 -32 -51 -32 -7 45 c-8 58 -28 87 -71 108 -68 31
-127 15 -159 -44 -26 -49 -23 -187 6 -219 23 -25 27 -20 -84 -96 -47 -32 -99
-71 -116 -87 -24 -22 -34 -26 -40 -17 -5 8 -1 17 11 23 10 6 39 28 66 48 40
32 49 44 54 81 13 87 -32 174 -101 197 -21 7 -54 9 -82 5 -26 -4 -44 -4 -40 0
4 4 -2 30 -13 57 -19 48 -19 52 -3 111 10 34 18 63 20 65 1 2 12 -3 24 -10 19
-12 24 -10 46 16 23 26 26 27 38 11 12 -17 16 -16 62 11 27 15 69 45 94 65 82
67 136 92 178 84 l37 -7 -53 -21 c-58 -22 -65 -32 -11 -17 19 6 77 17 129 26
52 8 121 22 152 30 69 17 282 50 392 60 l79 7 -7 -24 c-16 -55 -18 -89 -6
-124 11 -33 15 -36 38 -30 14 3 38 15 53 26 38 26 46 24 53 -15 9 -50 28 -62
75 -47 21 6 51 21 66 33 15 11 59 36 97 55 45 21 90 54 127 91 35 35 92 77
151 109 91 50 98 53 171 53 41 0 100 -7 130 -16z m-2001 -9 c0 -40 129 -142
203 -160 35 -9 34 -15 -9 -42 l-35 -22 -21 45 c-32 64 -72 68 -133 13 -20 -18
-22 -18 -64 3 -41 20 -42 22 -36 57 7 38 13 49 54 94 28 30 41 34 41 12z
m2560 -140 c32 -38 67 -73 78 -79 27 -15 112 -93 112 -103 0 -16 -151 -198
-170 -205 -10 -4 -31 -33 -46 -66 -25 -56 -58 -91 -72 -77 -4 4 -10 61 -13
128 -3 67 -11 136 -19 152 -7 17 -25 81 -40 144 l-28 113 37 53 36 52 33 -22
c18 -12 59 -53 92 -90z m-1638 -380 c59 -10 117 -30 194 -66 60 -28 151 -71
202 -95 51 -24 129 -67 175 -95 45 -29 109 -69 142 -90 33 -21 72 -43 88 -50
15 -7 27 -16 27 -21 0 -4 6 -8 14 -8 7 0 30 -13 51 -30 21 -16 34 -30 30 -30
-28 0 -115 31 -201 71 -22 10 -44 19 -49 19 -4 0 -31 15 -59 34 -28 18 -87 51
-131 73 -44 22 -104 54 -133 71 -29 18 -55 32 -57 32 -2 0 -48 21 -102 46
-161 76 -203 94 -263 109 -94 24 -125 21 -245 -29 -37 -15 -38 -15 -20 0 11 9
47 29 80 45 70 34 127 37 257 14z m1767 -57 c87 -43 204 -152 204 -191 0 -32
-13 -49 -21 -28 -17 48 -214 206 -272 217 -24 5 -28 9 -19 20 17 21 34 17 108
-18z m-1802 -14 c165 -44 334 -128 655 -326 147 -90 202 -114 287 -124 65 -7
72 -15 44 -53 -84 -109 -210 -152 -360 -122 -32 6 -188 54 -348 107 -258 86
-300 97 -380 101 -82 5 -97 2 -170 -25 -44 -16 -143 -59 -220 -94 -164 -77
-261 -111 -301 -106 -44 5 -83 76 -91 164 l-6 70 54 41 c230 175 430 296 603
364 89 35 113 35 233 3z m1760 -40 c60 -40 191 -162 198 -184 3 -11 3 -26 -2
-34 -6 -12 -26 2 -90 64 -45 43 -106 93 -137 110 -60 34 -71 44 -61 60 11 18
53 11 92 -16z m-31 -72 c78 -50 124 -92 159 -142 22 -32 25 -43 15 -55 -17
-20 -46 -3 -63 38 -23 53 -164 157 -214 157 -13 0 -23 4 -23 8 0 9 38 30 56
31 6 1 38 -16 70 -37z m-20 -78 c71 -48 98 -77 122 -127 15 -32 17 -47 9 -62
-10 -19 -10 -19 -17 0 -14 37 -154 169 -200 189 -56 25 -53 22 -45 36 13 20
75 3 131 -36z m139 -864 c-10 -201 -21 -369 -26 -374 -4 -5 -6 81 -3 190 2
110 6 305 8 434 2 139 10 264 17 305 l14 70 3 -130 c2 -71 -4 -294 -13 -495z
m-1890 594 c49 -8 127 -29 175 -46 47 -17 130 -46 184 -64 55 -19 113 -41 130
-48 17 -8 71 -27 121 -43 74 -24 90 -33 96 -53 4 -14 7 -91 8 -171 1 -143 1
-146 -24 -169 -32 -30 -32 -48 1 -56 l26 -7 -24 -23 c-34 -35 -166 -53 -246
-35 -91 21 -200 25 -267 8 -75 -18 -546 -16 -640 3 -33 6 -76 9 -97 6 -40 -7
-70 2 -107 32 -24 19 -24 21 -12 78 7 33 18 65 23 72 9 10 1 151 -15 291 -1 9
21 24 58 38 81 32 81 32 229 103 222 107 234 110 381 84z m-425 -850 c6 -67
14 -144 19 -172 5 -36 4 -60 -6 -83 -14 -34 -7 -48 25 -49 15 0 15 -13 1 -63
-9 -32 -7 -43 12 -77 21 -37 22 -46 16 -212 -6 -161 -21 -305 -32 -317 -3 -2
-10 0 -16 6 -10 10 3 217 21 338 16 102 13 156 -12 182 -19 21 -20 27 -11 70
13 54 11 61 -23 73 -24 9 -24 11 -9 40 15 29 15 42 -4 178 -22 156 -25 204
-14 216 15 15 22 -14 33 -130z m1339 -422 c-40 -59 -88 -127 -106 -151 -18
-24 -33 -50 -33 -57 0 -22 31 -16 37 6 3 12 12 20 21 18 18 -4 36 -52 28 -75
-6 -14 -8 -14 -21 3 -21 29 -40 6 -24 -30 10 -22 10 -37 1 -72 -14 -51 -8 -72
14 -53 11 9 15 8 20 -5 4 -11 -3 -25 -21 -41 -29 -28 -49 -24 -39 7 4 14 2 19
-8 16 -95 -28 -108 -34 -108 -48 0 -9 5 -21 12 -28 14 -14 -9 -25 -43 -20 -26
3 -39 28 -15 28 21 0 21 36 0 44 -26 10 -29 8 -74 -54 -24 -33 -45 -60 -47
-60 -11 0 5 28 73 130 111 167 146 218 273 390 62 85 116 162 119 169 4 11 7
11 10 3 2 -7 -29 -61 -69 -120z m-613 -533 c-16 -28 -17 -32 -2 -48 9 -10 16
-23 16 -29 0 -17 -35 -15 -50 3 -11 13 -15 12 -31 -9 -11 -13 -19 -27 -19 -30
0 -13 225 -6 252 8 16 8 49 18 75 21 47 6 47 6 21 -9 -54 -29 -54 -30 -13 -43
l40 -13 -40 5 c-22 3 -161 8 -310 11 -183 5 -262 10 -245 16 14 5 57 8 97 6
l72 -2 25 37 c31 46 31 49 6 72 -20 18 -27 45 -11 45 4 0 20 -9 35 -21 l27
-21 25 27 c19 21 28 25 37 16 8 -8 7 -19 -7 -42z m-1000 -356 c-77 -156 -84
-181 -96 -370 -6 -97 -19 -202 -30 -248 -12 -49 -20 -115 -20 -170 0 -65 -3
-86 -11 -78 -13 13 -7 160 9 243 6 30 16 129 21 220 6 91 18 194 27 230 17 66
107 259 128 272 28 18 23 1 -28 -99z m1343 -657 c31 -33 39 -100 16 -126 -24
-26 -79 -26 -105 0 -24 24 -24 24 -3 86 24 71 52 83 92 40z m-1296 -250 c29
-8 64 -17 80 -20 26 -6 27 -9 27 -69 0 -36 -5 -68 -12 -75 -8 -8 -48 -12 -115
-12 -96 0 -103 1 -103 20 0 11 5 20 10 20 19 0 11 47 -9 53 -25 6 -41 75 -20
88 21 13 84 11 142 -5z m664 -77 c100 -13 118 -29 118 -104 0 -30 -4 -58 -10
-63 -6 -6 -39 -6 -85 -1 -120 14 -117 13 -129 69 -15 68 -14 78 5 52 20 -30
44 -28 44 2 0 25 -30 43 -50 31 -5 -3 -10 1 -10 9 0 19 13 19 117 5z"/>
<path d="M2825 5161 c-32 -7 -62 -48 -52 -74 4 -10 23 -18 54 -21 26 -4 85
-11 130 -18 94 -13 133 -3 133 32 0 62 -146 107 -265 81z"/>
<path d="M2050 5101 c-44 -9 -69 -23 -97 -53 -28 -30 -32 -58 -12 -71 24 -15
202 28 236 57 32 28 22 52 -25 66 -41 11 -51 11 -102 1z"/>
<path d="M2647 4522 c-41 -45 -33 -143 13 -167 65 -34 130 -8 130 51 0 42 -24
102 -48 120 -25 19 -76 17 -95 -4z"/>
<path d="M2143 4499 c-32 -20 -48 -57 -38 -89 8 -24 58 -44 92 -35 57 14 78
58 52 108 -23 43 -56 48 -106 16z"/>
<path d="M3581 4370 c-52 -72 -49 -140 7 -161 56 -21 122 20 122 77 0 42 -14
78 -40 104 -31 31 -56 25 -89 -20z"/>
<path d="M2867 3290 c-22 -32 -10 -67 27 -80 45 -15 163 -15 181 0 23 19 18
56 -11 79 -22 17 -41 21 -105 21 -67 0 -80 -3 -92 -20z"/>
<path d="M2100 3281 c-14 -4 -31 -19 -40 -34 -13 -24 -13 -28 5 -45 39 -36 54
-40 115 -27 62 13 83 27 92 61 11 42 -8 54 -80 53 -37 -1 -78 -4 -92 -8z"/>
<path d="M1305 3453 c6 -5 27 -21 48 -37 43 -31 77 -91 77 -136 0 -17 11 -52
25 -78 29 -54 31 -79 11 -127 -10 -23 -28 -41 -56 -55 -43 -22 -62 -22 -35 0
17 14 20 40 5 40 -5 0 -10 7 -10 15 0 22 -42 19 -68 -5 -48 -45 -18 -80 67
-80 28 0 84 -11 124 -25 69 -23 76 -23 131 -11 92 22 70 10 -142 -78 -73 -30
-85 -31 -102 -11 -17 21 -76 18 -127 -5 -50 -22 -59 -37 -10 -17 63 27 102 29
130 7 14 -11 30 -20 36 -20 36 0 359 155 348 167 -6 5 -82 -9 -149 -28 -43
-12 -51 -11 -106 11 l-60 24 23 28 c13 16 27 44 31 63 7 38 -9 97 -32 115 -9
8 -14 31 -14 62 0 62 -18 97 -72 141 -37 29 -102 65 -73 40z"/>
<path d="M1139 3385 c-3 -35 -9 -43 -48 -64 -40 -22 -46 -23 -75 -9 -47 21
-67 12 -113 -49 -52 -68 -58 -123 -20 -170 13 -15 33 -42 46 -60 l22 -32 -26
-54 c-30 -64 -32 -97 -6 -128 15 -18 29 -23 82 -25 64 -3 64 -3 16 6 -89 16
-116 52 -82 110 45 78 43 91 -16 169 -56 74 -52 136 14 209 36 39 87 24 87
-27 l0 -26 23 27 c12 15 39 34 59 43 40 16 53 41 46 91 -4 25 -5 24 -9 -11z"/>
</g>
</svg>
